<svg xmlns="http://www.w3.org/2000/svg" width="41.412" height="41.411" viewBox="0 0 41.412 41.411">
  <path id="Fill_1" data-name="Fill 1" d="M39.055,0a2.339,2.339,0,0,1,1.627.675,2.085,2.085,0,0,1,.729,1.575v36.91a2.085,2.085,0,0,1-.729,1.575,2.339,2.339,0,0,1-1.627.675H28.506V25.432h5.387l.786-6.3H28.506V15.079q0-3.038,3.142-3.038H34.9V6.527a26.152,26.152,0,0,0-4.826-.338A7.8,7.8,0,0,0,24.3,8.384a8.3,8.3,0,0,0-2.188,6.133V19.13H16.722v6.3h5.387V41.412H2.245a2.151,2.151,0,0,1-1.571-.675A2.162,2.162,0,0,1,0,39.161V2.251A2.162,2.162,0,0,1,.673.675,2.151,2.151,0,0,1,2.245,0Z" fill="#fff"/>
</svg>
