<svg xmlns="http://www.w3.org/2000/svg" width="44.754" height="44.754" viewBox="0 0 44.754 44.754">
  <g id="Fill_1" data-name="Fill 1" transform="translate(0.5 0.5)">
    <path id="Fill_1-2" data-name="Fill 1" d="M37.41,43.754H16a3.866,3.866,0,0,1-2.8-1.147,3.749,3.749,0,0,1-1.164-2.759V2.344a2.254,2.254,0,0,1,.693-1.66A2.326,2.326,0,0,1,14.411,0H31.066a5.818,5.818,0,0,1,2.18.488A5.8,5.8,0,0,1,35.13,1.66L38.9,5.371a5.712,5.712,0,0,1,1.189,1.856,5.585,5.585,0,0,1,.5,2.149v3.98a6.4,6.4,0,0,1,2.305,2.271,5.978,5.978,0,0,1,.866,3.125V37.5a6,6,0,0,1-1.859,4.42A6.185,6.185,0,0,1,37.41,43.754ZM31.358,33.91a.705.705,0,0,0-.73.73v2.917a.705.705,0,0,0,.73.73h2.917a.705.705,0,0,0,.73-.73V34.639a.705.705,0,0,0-.73-.73Zm-6.563,0a.705.705,0,0,0-.73.73v2.917a.705.705,0,0,0,.73.73h2.917a.705.705,0,0,0,.73-.73V34.639a.705.705,0,0,0-.73-.73Zm-5.47,0a.7.7,0,0,0-.729.73v2.917a.7.7,0,0,0,.729.73h2.917a.7.7,0,0,0,.73-.73V34.639a.7.7,0,0,0-.73-.73Zm12.033-6.563a.705.705,0,0,0-.73.73v2.917a.705.705,0,0,0,.73.73h2.917a.705.705,0,0,0,.73-.73V28.076a.705.705,0,0,0-.73-.73Zm-6.563,0a.705.705,0,0,0-.73.73v2.917a.705.705,0,0,0,.73.73h2.917a.705.705,0,0,0,.73-.73V28.076a.705.705,0,0,0-.73-.73Zm-5.47,0a.7.7,0,0,0-.729.73v2.917a.7.7,0,0,0,.729.73h2.917a.7.7,0,0,0,.73-.73V28.076a.7.7,0,0,0-.73-.73Zm12.033-6.563a.705.705,0,0,0-.73.73V24.43a.705.705,0,0,0,.73.73h2.917a.705.705,0,0,0,.73-.73V21.513a.705.705,0,0,0-.73-.73Zm-6.563,0a.705.705,0,0,0-.73.73V24.43a.705.705,0,0,0,.73.73h2.917a.705.705,0,0,0,.73-.73V21.513a.705.705,0,0,0-.73-.73Zm-5.47,0a.7.7,0,0,0-.729.73V24.43a.7.7,0,0,0,.729.73h2.917a.7.7,0,0,0,.73-.73V21.513a.7.7,0,0,0-.73-.73Zm-4.01-17.5V15.315H37.191V9.3H33.285a2.316,2.316,0,0,1-1.66-.658,2.144,2.144,0,0,1-.684-1.6V3.282ZM7.032,43.754H3.906a3.8,3.8,0,0,1-2.759-1.132A3.7,3.7,0,0,1,0,39.9V13.7a3.7,3.7,0,0,1,1.147-2.722A3.8,3.8,0,0,1,3.906,9.845H7.032a3.8,3.8,0,0,1,2.759,1.131A3.7,3.7,0,0,1,10.938,13.7V39.9a3.7,3.7,0,0,1-1.147,2.721A3.8,3.8,0,0,1,7.032,43.754Z" transform="translate(0 0)" fill="none"/>
    <path id="Fill_1-3" data-name="Fill 1" d="M37.41,43.754H16a3.866,3.866,0,0,1-2.8-1.147,3.749,3.749,0,0,1-1.164-2.759V2.344a2.254,2.254,0,0,1,.693-1.66A2.326,2.326,0,0,1,14.411,0H31.066a5.818,5.818,0,0,1,2.18.488A5.8,5.8,0,0,1,35.13,1.66L38.9,5.371a5.712,5.712,0,0,1,1.189,1.856,5.585,5.585,0,0,1,.5,2.149v3.98a6.4,6.4,0,0,1,2.305,2.271,5.978,5.978,0,0,1,.866,3.125V37.5a6,6,0,0,1-1.859,4.42A6.185,6.185,0,0,1,37.41,43.754ZM31.358,33.91a.705.705,0,0,0-.73.73v2.917a.705.705,0,0,0,.73.73h2.917a.705.705,0,0,0,.73-.73V34.639a.705.705,0,0,0-.73-.73Zm-6.563,0a.705.705,0,0,0-.73.73v2.917a.705.705,0,0,0,.73.73h2.917a.705.705,0,0,0,.73-.73V34.639a.705.705,0,0,0-.73-.73Zm-5.47,0a.7.7,0,0,0-.729.73v2.917a.7.7,0,0,0,.729.73h2.917a.7.7,0,0,0,.73-.73V34.639a.7.7,0,0,0-.73-.73Zm12.033-6.563a.705.705,0,0,0-.73.73v2.917a.705.705,0,0,0,.73.73h2.917a.705.705,0,0,0,.73-.73V28.076a.705.705,0,0,0-.73-.73Zm-6.563,0a.705.705,0,0,0-.73.73v2.917a.705.705,0,0,0,.73.73h2.917a.705.705,0,0,0,.73-.73V28.076a.705.705,0,0,0-.73-.73Zm-5.47,0a.7.7,0,0,0-.729.73v2.917a.7.7,0,0,0,.729.73h2.917a.7.7,0,0,0,.73-.73V28.076a.7.7,0,0,0-.73-.73Zm12.033-6.563a.705.705,0,0,0-.73.73V24.43a.705.705,0,0,0,.73.73h2.917a.705.705,0,0,0,.73-.73V21.513a.705.705,0,0,0-.73-.73Zm-6.563,0a.705.705,0,0,0-.73.73V24.43a.705.705,0,0,0,.73.73h2.917a.705.705,0,0,0,.73-.73V21.513a.705.705,0,0,0-.73-.73Zm-5.47,0a.7.7,0,0,0-.729.73V24.43a.7.7,0,0,0,.729.73h2.917a.7.7,0,0,0,.73-.73V21.513a.7.7,0,0,0-.73-.73Zm-4.01-17.5V15.315H37.191V9.3H33.285a2.316,2.316,0,0,1-1.66-.658,2.144,2.144,0,0,1-.684-1.6V3.282ZM7.032,43.754H3.906a3.8,3.8,0,0,1-2.759-1.132A3.7,3.7,0,0,1,0,39.9V13.7a3.7,3.7,0,0,1,1.147-2.722A3.8,3.8,0,0,1,3.906,9.845H7.032a3.8,3.8,0,0,1,2.759,1.131A3.7,3.7,0,0,1,10.938,13.7V39.9a3.7,3.7,0,0,1-1.147,2.721A3.8,3.8,0,0,1,7.032,43.754Z" transform="translate(0 0)" fill="none" stroke="#fcb611" stroke-miterlimit="10" stroke-width="1"/>
  </g>
</svg>
