<svg id="Instagram" xmlns="http://www.w3.org/2000/svg" xmlns:xlink="http://www.w3.org/1999/xlink" width="39.329" height="39.538" viewBox="0 0 39.329 39.538">
  <defs>
    <clipPath id="clip-path">
      <path id="Clip_2" data-name="Clip 2" d="M0,0H39.329V39.538H0Z" fill="none"/>
    </clipPath>
  </defs>
  <g id="Group_3" data-name="Group 3" transform="translate(0 0)">
    <path id="Clip_2-2" data-name="Clip 2" d="M0,0H39.329V39.538H0Z" transform="translate(0 0)" fill="none"/>
    <g id="Group_3-2" data-name="Group 3" transform="translate(0 0)" clip-path="url(#clip-path)">
      <path id="Fill_1" data-name="Fill 1" d="M20.5,39.539h-.85c-5.279,0-5.982-.026-8.108-.123C4.391,39.081.438,35.1.113,27.91.019,25.78,0,25.075,0,19.757s.026-6.02.125-8.151C.456,4.414,4.414.44,11.57.114,13.529.025,14.285,0,18.56,0h1.117c5.294,0,5.994.026,8.109.126C34.948.461,38.9,4.44,39.216,11.632c.094,2.1.116,2.8.113,8.151s-.027,6.046-.125,8.151C38.877,35.125,34.92,39.1,27.761,39.425,25.765,39.515,25.055,39.539,20.5,39.539ZM18.751,3.564c-4.409,0-5.1.023-7.023.109C9.043,3.794,7.1,4.5,5.789,5.819s-2,3.264-2.126,5.954c-.1,2.144-.116,2.779-.119,7.986,0,5.308.017,5.929.11,7.989.12,2.687.812,4.634,2.114,5.952s3.254,2.034,5.941,2.158c2.031.1,2.646.118,7.946.12h1.194c4.15,0,4.825-.023,6.754-.111,2.685-.121,4.628-.823,5.94-2.146s2-3.263,2.125-5.951c.1-2.142.116-2.778.119-7.987,0-5.3-.017-5.922-.109-7.989-.121-2.689-.814-4.638-2.119-5.956s-3.252-2.029-5.936-2.153c-2.037-.1-2.653-.116-7.949-.12Z" transform="translate(-0.001 0)" fill="#fff"/>
    </g>
  </g>
  <path id="Fill_4" data-name="Fill 4" d="M10.1,20.305h0a10.153,10.153,0,1,1,10.1-10.148A10.137,10.137,0,0,1,10.1,20.305Zm0-16.745v0a6.57,6.57,0,1,0,4.639,1.933A6.491,6.491,0,0,0,10.1,3.562Z" transform="translate(9.567 9.617)" fill="#fff"/>
  <path id="Fill_6" data-name="Fill 6" d="M2.363,0A2.373,2.373,0,1,0,4.721,2.374,2.37,2.37,0,0,0,2.363,0" transform="translate(27.806 6.851)" fill="#fff"/>
</svg>
