<svg id="Fill_2" data-name="Fill 2" xmlns="http://www.w3.org/2000/svg" width="21" height="16" viewBox="0 0 21 16">
  <path id="Fill_1" data-name="Fill 1" d="M20.12,16H.88a.675.675,0,0,1-.748-.471A4.237,4.237,0,0,1,0,14.4a4.237,4.237,0,0,1,.132-1.13A.675.675,0,0,1,.88,12.8H20.12a.676.676,0,0,1,.748.471A4.276,4.276,0,0,1,21,14.4a4.276,4.276,0,0,1-.131,1.129A.676.676,0,0,1,20.12,16Zm0-6.4H.88A.675.675,0,0,1,.132,9.13,4.237,4.237,0,0,1,0,8,4.237,4.237,0,0,1,.132,6.871.675.675,0,0,1,.88,6.4H20.12a.676.676,0,0,1,.748.471A4.276,4.276,0,0,1,21,8a4.276,4.276,0,0,1-.131,1.13A.676.676,0,0,1,20.12,9.6Zm0-6.4H.88c-.409,0-.661-.157-.748-.466A4.288,4.288,0,0,1,0,1.585,4.152,4.152,0,0,1,.132.466C.219.157.471,0,.88,0H20.12a.676.676,0,0,1,.748.466A4.19,4.19,0,0,1,21,1.585a4.327,4.327,0,0,1-.131,1.149A.676.676,0,0,1,20.12,3.2Z" fill="#56135a"/>
</svg>
