<svg id="phon" xmlns="http://www.w3.org/2000/svg" width="39.202" height="41.492" viewBox="0 0 39.202 41.492">
  <path id="Fill_1" data-name="Fill 1" d="M30.364,41.492a11.749,11.749,0,0,1-4.783-1.179,28.561,28.561,0,0,1-5.622-3.536,67.167,67.167,0,0,1-8.726-7.9A63.328,63.328,0,0,1,2.4,16.266,22.736,22.736,0,0,1,.214,10.255,9.953,9.953,0,0,1,.382,5.422a7.3,7.3,0,0,1,3.132-3.89l.112-.118A6.517,6.517,0,0,1,7.207,0a4.837,4.837,0,0,1,3.8,2.122l.112.118a44.023,44.023,0,0,1,3.58,5.54,7.867,7.867,0,0,1,.812,3.389,5.113,5.113,0,0,1-.923,2.859,5.974,5.974,0,0,0-1.342,2.711A7.147,7.147,0,0,0,14.7,18.86l.112.117c1.839,2.179,2.763,3.266,2.909,3.419a.314.314,0,0,1,.224.118l.224.236.224.236c1.477,1.557,2.568,2.667,3.244,3.3l.112.118c.668.626,1.12.943,1.342.943a11.19,11.19,0,0,0,3.244-1.768,3.084,3.084,0,0,1,1.9-.589A9.793,9.793,0,0,1,33.1,26.758a22.46,22.46,0,0,1,4.419,3.418A5.387,5.387,0,0,1,39.2,33.889a6.687,6.687,0,0,1-1.678,4.067A11.657,11.657,0,0,1,34.9,40.431a5.763,5.763,0,0,1-2.125.942A18.559,18.559,0,0,1,30.364,41.492ZM7.207,2A5.567,5.567,0,0,0,4.633,3.065l-.224.117A5.586,5.586,0,0,0,2.06,6.011a8.158,8.158,0,0,0-.084,4.1,20.346,20.346,0,0,0,1.986,5.216,54.954,54.954,0,0,0,8.5,12.259,62.388,62.388,0,0,0,8.5,7.544c3.934,2.972,7.1,4.479,9.4,4.479a8.347,8.347,0,0,0,3.132-.471,7.966,7.966,0,0,0,2.685-2.475c.965-1.408,1.417-2.419,1.342-3.006a4.048,4.048,0,0,0-1.231-2.063,16.848,16.848,0,0,0-3.8-3.006,8.742,8.742,0,0,0-4.252-1.591,1.913,1.913,0,0,0-.894.236C25.192,28.637,23.8,29.35,23.2,29.35a4.757,4.757,0,0,1-2.573-1.532h-.112A29.02,29.02,0,0,1,17.163,24.4l-.224-.236a3.473,3.473,0,0,0-.448-.354c-.224-.236-1.212-1.392-3.02-3.536v-.118a7.824,7.824,0,0,1-2.014-3.3c-.074-.938.528-2.287,1.79-4.007.631-.861.659-2.08.084-3.625A22.4,22.4,0,0,0,9.78,3.536l-.112-.117A3.17,3.17,0,0,0,7.207,2Z" transform="translate(0)" fill="#fcb611"/>
</svg>
