<svg xmlns="http://www.w3.org/2000/svg" width="36.055" height="34.448" viewBox="0 0 36.055 34.448">
  <path id="Fill_1" data-name="Fill 1" d="M31.863,34.448a2.075,2.075,0,0,1-1.539-.639l-8.652-8.261a16.637,16.637,0,0,1-3.389,1.342,14.429,14.429,0,0,1-9.32-.639,15.783,15.783,0,0,1-4.638-3.024A14.17,14.17,0,0,1,1.159,18.8,13,13,0,0,1,1.093,8.218,13.173,13.173,0,0,1,4.1,3.939a14.639,14.639,0,0,1,4.5-2.875A14.336,14.336,0,0,1,14.092,0a14.06,14.06,0,0,1,5.574,1.128A15.778,15.778,0,0,1,24.3,4.152,14.48,14.48,0,0,1,27.492,8.58a12.461,12.461,0,0,1,1.182,5.3,12.905,12.905,0,0,1-.535,3.7,13.152,13.152,0,0,1-1.516,3.321l8.606,8.218a2.35,2.35,0,0,1,.8,1.32,1.411,1.411,0,0,1-.491,1.32L33.4,33.809A2.075,2.075,0,0,1,31.863,34.448ZM14.092,4.13a9.778,9.778,0,0,0-3.791.745,10.38,10.38,0,0,0-3.121,2,9.123,9.123,0,0,0-2.1,2.959,8.841,8.841,0,0,0-.758,3.62,8.555,8.555,0,0,0,.847,3.726A10.646,10.646,0,0,0,7.425,20.29a11.171,11.171,0,0,0,3.255,2.15,9.58,9.58,0,0,0,3.858.809,9.785,9.785,0,0,0,3.79-.745,10.38,10.38,0,0,0,3.121-2,9.107,9.107,0,0,0,2.1-2.959,8.942,8.942,0,0,0,.758-3.662,8.647,8.647,0,0,0-.825-3.683,10.3,10.3,0,0,0-2.23-3.109,11.172,11.172,0,0,0-3.255-2.15A9.686,9.686,0,0,0,14.092,4.13Z" fill="#56135a"/>
</svg>
