<svg xmlns="http://www.w3.org/2000/svg" width="50.796" height="39.819" viewBox="0 0 50.796 39.819">
  <g id="twitter" style="mix-blend-mode: lighten;isolation: isolate">
    <path id="Fill_1" data-name="Fill 1" d="M50.8,4.77A19.93,19.93,0,0,1,45.63,9.955V11.2q0,10.888-8.125,19.754T15.928,39.819A29.538,29.538,0,0,1,0,35.256a23.58,23.58,0,0,0,2.475.207,20.729,20.729,0,0,0,12.914-4.355,10.732,10.732,0,0,1-6.027-2.022A9.519,9.519,0,0,1,5.7,24.161a13.422,13.422,0,0,0,1.937.207,12.523,12.523,0,0,0,2.8-.415A10.6,10.6,0,0,1,4.466,20.48,9.352,9.352,0,0,1,2.045,14.1V14A10.1,10.1,0,0,0,6.78,15.243a9.332,9.332,0,0,1-4.628-8.4,9.7,9.7,0,0,1,1.4-4.977A28.578,28.578,0,0,0,24.967,12.34a8.746,8.746,0,0,1-.215-2.281A9.544,9.544,0,0,1,27.766,2.9,10.29,10.29,0,0,1,35.191,0a10.117,10.117,0,0,1,7.533,3.215A19.846,19.846,0,0,0,49.4.726a9.266,9.266,0,0,1-4.628,5.6A18.3,18.3,0,0,0,50.8,4.77Z" fill="#fff"/>
  </g>
</svg>
